# xmcd
#
# Track frame offsets: 
#        150
#        15448
#        30268
#        41807
#        51989
#        64043
#        74997
#        88693
#        97620
#        108918
#        116207
#        128184
#        140444
#        153286
#        181383
#
# Disc length: 2509 seconds
#
# Revision: 2
# Processed by: cddbd v1.5.2PL0 Copyright (c) Steve Scherf et al.
# Submitted via: ExactAudioCopyFreeDBPlugin 1.0
#
DISCID=c909cb0f
DTITLE=Elvis Presley - Playlist (The Very Best Gospel of Elvis Presley
DTITLE=)
DYEAR=2010
DGENRE=Gospel
TTITLE0=Peace In The Valley
TTITLE1=His Hand In Mine
TTITLE2=Swing Downe Sweet Chariot
TTITLE3=Milky White Way
TTITLE4=Joshua Fit The Battle
TTITLE5=Crying In The Chapel
TTITLE6=How Great Thou Art
TTITLE7=So High
TTITLE8=Without Him
TTITLE9=Bosom Of Abraham
TTITLE10=He Touched Me
TTITLE11=Help Me
TTITLE12=Why Me Lord
TTITLE13=How Great Thou Art
TTITLE14=Daten-CD
EXTD=
EXTT0=Album: Elvis Christmas Album
EXTT1=Album: His Hand In Mine
EXTT2=Album: His Hand In Mine
EXTT3=Album: His Hand In Mine
EXTT4=Album: His Hand In Mine
EXTT5=Album: How Great Thou Art
EXTT6=Album: How Great Thou Art
EXTT7=Album: How Great Thou Art
EXTT8=Album: How Great Thou Art
EXTT9=Album: He Touched Me
EXTT10=Album: He Touched Me
EXTT11=Album: Elvis Recorded Live On Stage In Memphis
EXTT12=Album: Elvis Recorded Live On Stage In Memphis
EXTT13=Album: Elvis Recorded Live On Stage In Memphis
EXTT14=
PLAYORDER=
